# MagicaVoxel @ Ephtracy

# group
g Traffic Lights

# material
mtllib Traffic Lights.mtl
usemtl palette

# normals
vn -1 0 0
vn 1 0 0
vn 0 0 1
vn 0 0 -1
vn 0 -1 0
vn 0 1 0

# texcoords
vt 0.0175781 0.5
vt 0.767578 0.5
vt 0.857422 0.5
vt 0.982422 0.5

# verts
v -3 -10 3
v -3 -10 -3
v -3 -9 3
v -3 -9 -3
v -2 4 3
v -2 4 -3
v -2 9 3
v -2 9 -3
v -1 -9 2
v -1 -9 -2
v -1 3 3
v -1 3 2
v -1 3 -2
v -1 3 -3
v -1 4 3
v -1 4 -3
v -1 9 3
v -1 9 -3
v -1 10 3
v -1 10 -3
v 1 -9 2
v 1 -9 -2
v 1 3 3
v 1 3 2
v 1 3 -2
v 1 3 -3
v 1 4 3
v 1 4 -3
v 1 9 3
v 1 9 -3
v 1 10 3
v 1 10 -3
v 2 4 3
v 2 4 -3
v 2 9 3
v 2 9 -3
v 3 -10 3
v 3 -10 -3
v 3 -9 3
v 3 -9 -3
v -3 -10 3
v -3 -9 3
v -2 4 3
v -2 9 3
v -1 3 3
v -1 4 3
v -1 9 3
v -1 10 3
v 1 3 3
v 1 4 3
v 1 9 3
v 1 10 3
v 2 4 3
v 2 9 3
v 3 -10 3
v 3 -9 3
v -1 -9 2
v -1 3 2
v 1 -9 2
v 1 3 2
v -1 -9 -2
v -1 3 -2
v 1 -9 -2
v 1 3 -2
v -3 -10 -3
v -3 -9 -3
v -2 4 -3
v -2 9 -3
v -1 3 -3
v -1 4 -3
v -1 5 -3
v -1 6 -3
v -1 7 -3
v -1 8 -3
v -1 9 -3
v -1 10 -3
v 1 3 -3
v 1 4 -3
v 1 5 -3
v 1 6 -3
v 1 7 -3
v 1 8 -3
v 1 9 -3
v 1 10 -3
v 2 4 -3
v 2 9 -3
v 3 -10 -3
v 3 -9 -3
v -3 -10 3
v 3 -10 3
v -3 -10 -3
v 3 -10 -3
v -1 3 3
v 1 3 3
v -1 3 2
v 1 3 2
v -1 3 -2
v 1 3 -2
v -1 3 -3
v 1 3 -3
v -2 4 3
v -1 4 3
v 1 4 3
v 2 4 3
v -2 4 -3
v -1 4 -3
v 1 4 -3
v 2 4 -3
v -3 -9 3
v 3 -9 3
v -1 -9 2
v 1 -9 2
v -1 -9 -2
v 1 -9 -2
v -3 -9 -3
v 3 -9 -3
v -2 9 3
v -1 9 3
v 1 9 3
v 2 9 3
v -2 9 -3
v -1 9 -3
v 1 9 -3
v 2 9 -3
v -1 10 3
v 1 10 3
v -1 10 -3
v 1 10 -3

# faces
f 3/4/1 2/4/1 1/4/1
f 4/4/1 2/4/1 3/4/1
f 7/4/1 6/4/1 5/4/1
f 8/4/1 6/4/1 7/4/1
f 12/4/1 10/4/1 9/4/1
f 13/4/1 10/4/1 12/4/1
f 15/4/1 12/4/1 11/4/1
f 15/4/1 14/4/1 13/4/1
f 15/4/1 13/4/1 12/4/1
f 16/4/1 14/4/1 15/4/1
f 19/4/1 18/4/1 17/4/1
f 20/4/1 18/4/1 19/4/1
f 21/4/2 22/4/2 24/4/2
f 24/4/2 22/4/2 25/4/2
f 23/4/2 24/4/2 27/4/2
f 25/4/2 26/4/2 27/4/2
f 24/4/2 25/4/2 27/4/2
f 27/4/2 26/4/2 28/4/2
f 29/4/2 30/4/2 31/4/2
f 31/4/2 30/4/2 32/4/2
f 33/4/2 34/4/2 35/4/2
f 35/4/2 34/4/2 36/4/2
f 37/4/2 38/4/2 39/4/2
f 39/4/2 38/4/2 40/4/2
f 46/4/3 44/4/3 43/4/3
f 47/4/3 44/4/3 46/4/3
f 49/4/3 46/4/3 45/4/3
f 49/4/3 48/4/3 47/4/3
f 49/4/3 47/4/3 46/4/3
f 50/4/3 48/4/3 49/4/3
f 51/4/3 48/4/3 50/4/3
f 52/4/3 48/4/3 51/4/3
f 53/4/3 51/4/3 50/4/3
f 54/4/3 51/4/3 53/4/3
f 55/4/3 42/4/3 41/4/3
f 56/4/3 42/4/3 55/4/3
f 59/4/3 58/4/3 57/4/3
f 60/4/3 58/4/3 59/4/3
f 61/4/4 62/4/4 63/4/4
f 63/4/4 62/4/4 64/4/4
f 67/4/4 68/4/4 70/4/4
f 70/4/4 68/4/4 71/4/4
f 71/4/4 68/4/4 72/4/4
f 72/4/4 68/4/4 73/4/4
f 73/4/4 68/4/4 74/4/4
f 74/4/4 68/4/4 75/4/4
f 69/4/4 70/4/4 77/4/4
f 70/2/4 71/2/4 78/2/4
f 77/4/4 70/4/4 78/4/4
f 71/4/4 72/4/4 79/4/4
f 78/2/4 71/2/4 79/2/4
f 72/1/4 73/1/4 80/1/4
f 79/4/4 72/4/4 80/4/4
f 73/4/4 74/4/4 81/4/4
f 80/1/4 73/1/4 81/1/4
f 74/3/4 75/3/4 82/3/4
f 81/4/4 74/4/4 82/4/4
f 75/4/4 76/4/4 83/4/4
f 82/3/4 75/3/4 83/3/4
f 83/4/4 76/4/4 84/4/4
f 81/4/4 82/4/4 85/4/4
f 82/4/4 83/4/4 85/4/4
f 80/4/4 81/4/4 85/4/4
f 79/4/4 80/4/4 85/4/4
f 78/4/4 79/4/4 85/4/4
f 85/4/4 83/4/4 86/4/4
f 65/4/4 66/4/4 87/4/4
f 87/4/4 66/4/4 88/4/4
f 91/4/5 90/4/5 89/4/5
f 92/4/5 90/4/5 91/4/5
f 95/4/5 94/4/5 93/4/5
f 96/4/5 94/4/5 95/4/5
f 99/4/5 98/4/5 97/4/5
f 100/4/5 98/4/5 99/4/5
f 105/4/5 102/4/5 101/4/5
f 106/4/5 102/4/5 105/4/5
f 107/4/5 104/4/5 103/4/5
f 108/4/5 104/4/5 107/4/5
f 109/4/6 110/4/6 111/4/6
f 111/4/6 110/4/6 112/4/6
f 109/4/6 111/4/6 113/4/6
f 112/4/6 110/4/6 114/4/6
f 109/4/6 113/4/6 115/4/6
f 113/4/6 114/4/6 115/4/6
f 114/4/6 110/4/6 116/4/6
f 115/4/6 114/4/6 116/4/6
f 117/4/6 118/4/6 121/4/6
f 121/4/6 118/4/6 122/4/6
f 119/4/6 120/4/6 123/4/6
f 123/4/6 120/4/6 124/4/6
f 125/4/6 126/4/6 127/4/6
f 127/4/6 126/4/6 128/4/6
